<svg width="324" height="42" viewBox="0 0 324 42" fill="none" xmlns="http://www.w3.org/2000/svg">
<g filter="url(#filter0_d)">
<rect x="61" width="203" height="38" rx="5" fill="#E21047"/>
</g>
<path d="M100.661 11.623V13.7676H95.3789V17.2744H99.2637V19.4277H95.3789V25H92.5488V11.623H100.661ZM105.24 14.9805V25H102.498V14.9805H105.24ZM102.164 12.0186C102.164 11.7256 102.246 11.4531 102.41 11.2012C102.574 10.9492 102.791 10.75 103.061 10.6035C103.33 10.4512 103.614 10.375 103.913 10.375C104.394 10.375 104.777 10.5156 105.064 10.7969C105.352 11.0723 105.495 11.4297 105.495 11.8691C105.495 12.1621 105.413 12.4375 105.249 12.6953C105.091 12.9473 104.877 13.1494 104.607 13.3018C104.344 13.4482 104.06 13.5215 103.755 13.5215C103.456 13.5215 103.187 13.457 102.946 13.3281C102.706 13.1992 102.516 13.0205 102.375 12.792C102.234 12.5635 102.164 12.3057 102.164 12.0186ZM111.094 10.3926V25H108.352V10.3926H111.094ZM117 10.3926V25H114.258V10.3926H117ZM134.684 14.9805L131.563 25.2637C131.212 26.4121 130.743 27.3145 130.157 27.9707C129.571 28.627 128.918 29.0605 128.197 29.2715C128.045 29.3184 127.819 29.3594 127.521 29.3945C127.228 29.4355 127.008 29.4561 126.861 29.4561C126.709 29.4561 126.46 29.4355 126.114 29.3945C125.769 29.3594 125.572 29.3242 125.525 29.2891V27.0654C125.631 27.1006 125.798 27.1387 126.026 27.1797C126.261 27.2207 126.425 27.2412 126.519 27.2412C126.935 27.2412 127.292 27.2031 127.591 27.127C127.896 27.0508 128.194 26.8486 128.487 26.5205C128.786 26.1982 129.023 25.6914 129.199 25H128.021L124.62 14.9805H127.591L129.111 20.333L129.841 23.2246L130.518 20.333L131.739 14.9805H134.684ZM135.756 19.8936C135.756 18.8213 135.967 17.9072 136.389 17.1514C136.811 16.3896 137.396 15.8154 138.146 15.4287C138.896 15.0361 139.758 14.8398 140.73 14.8398C141.838 14.8398 142.749 15.0742 143.464 15.543C144.179 16.0059 144.697 16.6299 145.02 17.415C145.348 18.1943 145.512 19.0762 145.512 20.0605C145.512 21.1387 145.301 22.0586 144.879 22.8203C144.457 23.582 143.871 24.1592 143.121 24.5518C142.371 24.9443 141.513 25.1406 140.546 25.1406C139.433 25.1406 138.519 24.9062 137.804 24.4375C137.089 23.9688 136.567 23.3418 136.239 22.5566C135.917 21.7656 135.756 20.8779 135.756 19.8936ZM142.673 20.0693C142.673 19.1318 142.506 18.3525 142.172 17.7314C141.838 17.1045 141.331 16.791 140.651 16.791C139.28 16.791 138.595 17.8105 138.595 19.8496C138.595 20.4648 138.665 21.0273 138.806 21.5371C138.952 22.041 139.178 22.4453 139.482 22.75C139.793 23.0547 140.18 23.207 140.643 23.207C141.996 23.207 142.673 22.1611 142.673 20.0693ZM156.48 14.9805V25.1406H154.67C154.436 25.1406 154.266 25.1055 154.16 25.0352C154.055 24.9707 154.002 24.8359 154.002 24.6309V24.1738C153.621 24.4434 153.155 24.6719 152.604 24.8594C152.06 25.0469 151.55 25.1406 151.075 25.1406C150.161 25.1406 149.464 24.9678 148.983 24.6221C148.503 24.2764 148.181 23.7988 148.017 23.1895C147.858 22.5801 147.779 21.7949 147.779 20.834V14.9805H150.521V20.8076C150.521 21.4346 150.574 21.9092 150.68 22.2314C150.791 22.5479 150.952 22.7617 151.163 22.873C151.38 22.9844 151.679 23.04 152.06 23.04C152.353 23.04 152.663 22.9785 152.991 22.8555C153.319 22.7324 153.568 22.6035 153.738 22.4688V14.9805H156.48ZM164.795 14.8135C165.176 14.8135 165.437 14.8545 165.577 14.9365V17.582C165.442 17.5059 165.287 17.4473 165.111 17.4062C164.941 17.3594 164.695 17.3359 164.373 17.3359C163.529 17.3359 162.785 17.6377 162.141 18.2412V25H159.398V14.9805H161.833L161.956 16.3516C162.103 16.0938 162.319 15.8477 162.606 15.6133C162.899 15.3789 163.236 15.1885 163.617 15.042C164.004 14.8896 164.396 14.8135 164.795 14.8135ZM178.989 14.8398C179.722 14.8398 180.39 15.0186 180.993 15.376C181.597 15.7275 182.077 16.2637 182.435 16.9844C182.798 17.6992 182.979 18.5781 182.979 19.6211C182.979 20.7168 182.766 21.6836 182.338 22.5215C181.916 23.3535 181.318 23.998 180.545 24.4551C179.777 24.9121 178.89 25.1406 177.882 25.1406C177.284 25.1406 176.73 25.0469 176.221 24.8594L176.256 26.2217V29.4473H173.514V14.9805H176.071V16C176.394 15.6777 176.783 15.4053 177.24 15.1826C177.697 14.9541 178.28 14.8398 178.989 14.8398ZM180.105 19.7705C180.105 18.71 179.938 17.9658 179.604 17.5381C179.271 17.1045 178.784 16.8877 178.146 16.8877C177.782 16.8877 177.431 16.9463 177.091 17.0635C176.757 17.1807 176.479 17.3301 176.256 17.5117V22.8115C176.426 22.9639 176.64 23.0693 176.897 23.1279C177.161 23.1865 177.463 23.2158 177.803 23.2158C178.248 23.2158 178.644 23.0811 178.989 22.8115C179.335 22.542 179.607 22.1465 179.807 21.625C180.006 21.1035 180.105 20.4854 180.105 19.7705ZM190.6 14.8135C190.98 14.8135 191.241 14.8545 191.382 14.9365V17.582C191.247 17.5059 191.092 17.4473 190.916 17.4062C190.746 17.3594 190.5 17.3359 190.178 17.3359C189.334 17.3359 188.59 17.6377 187.945 18.2412V25H185.203V14.9805H187.638L187.761 16.3516C187.907 16.0938 188.124 15.8477 188.411 15.6133C188.704 15.3789 189.041 15.1885 189.422 15.042C189.809 14.8896 190.201 14.8135 190.6 14.8135ZM192.797 19.8936C192.797 18.8213 193.008 17.9072 193.43 17.1514C193.852 16.3896 194.438 15.8154 195.188 15.4287C195.938 15.0361 196.799 14.8398 197.771 14.8398C198.879 14.8398 199.79 15.0742 200.505 15.543C201.22 16.0059 201.738 16.6299 202.061 17.415C202.389 18.1943 202.553 19.0762 202.553 20.0605C202.553 21.1387 202.342 22.0586 201.92 22.8203C201.498 23.582 200.912 24.1592 200.162 24.5518C199.412 24.9443 198.554 25.1406 197.587 25.1406C196.474 25.1406 195.56 24.9062 194.845 24.4375C194.13 23.9688 193.608 23.3418 193.28 22.5566C192.958 21.7656 192.797 20.8779 192.797 19.8936ZM199.714 20.0693C199.714 19.1318 199.547 18.3525 199.213 17.7314C198.879 17.1045 198.372 16.791 197.692 16.791C196.321 16.791 195.636 17.8105 195.636 19.8496C195.636 20.4648 195.706 21.0273 195.847 21.5371C195.993 22.041 196.219 22.4453 196.523 22.75C196.834 23.0547 197.221 23.207 197.684 23.207C199.037 23.207 199.714 22.1611 199.714 20.0693ZM204.117 16.8789V15.2793L205.479 14.9805V14.0225C205.479 13.1025 205.661 12.3584 206.024 11.79C206.388 11.2217 206.851 10.8174 207.413 10.5771C207.981 10.3311 208.585 10.208 209.224 10.208C209.569 10.208 209.918 10.2314 210.27 10.2783C210.627 10.3193 210.87 10.3604 210.999 10.4014V12.3525C210.706 12.2119 210.249 12.1416 209.628 12.1416C209.2 12.1416 208.857 12.2969 208.6 12.6074C208.348 12.918 208.222 13.3691 208.222 13.9609V14.9805H210.56V16.8789H208.222V25H205.479V16.8789H204.117ZM215.209 14.9805V25H212.467V14.9805H215.209ZM212.133 12.0186C212.133 11.7256 212.215 11.4531 212.379 11.2012C212.543 10.9492 212.76 10.75 213.029 10.6035C213.299 10.4512 213.583 10.375 213.882 10.375C214.362 10.375 214.746 10.5156 215.033 10.7969C215.32 11.0723 215.464 11.4297 215.464 11.8691C215.464 12.1621 215.382 12.4375 215.218 12.6953C215.06 12.9473 214.846 13.1494 214.576 13.3018C214.312 13.4482 214.028 13.5215 213.724 13.5215C213.425 13.5215 213.155 13.457 212.915 13.3281C212.675 13.1992 212.484 13.0205 212.344 12.792C212.203 12.5635 212.133 12.3057 212.133 12.0186ZM221.062 10.3926V25H218.32V10.3926H221.062ZM232.251 18.7686C232.251 19.6123 232.219 20.2393 232.154 20.6494H226.23C226.283 21.4756 226.541 22.0908 227.004 22.4951C227.473 22.8994 228.105 23.1016 228.902 23.1016C229.283 23.1016 229.743 23.0518 230.282 22.9521C230.827 22.8467 231.226 22.7236 231.478 22.583L231.926 24.1387C231.58 24.4199 231.062 24.6572 230.37 24.8506C229.679 25.0439 228.958 25.1406 228.208 25.1406C227.2 25.1406 226.342 24.9355 225.633 24.5254C224.924 24.1152 224.388 23.5234 224.024 22.75C223.661 21.9707 223.479 21.0391 223.479 19.9551C223.479 18.9707 223.67 18.0918 224.051 17.3184C224.432 16.5449 224.985 15.9385 225.712 15.499C226.444 15.0596 227.314 14.8398 228.322 14.8398C229.049 14.8398 229.705 14.9717 230.291 15.2354C230.877 15.499 231.346 15.9238 231.697 16.5098C232.055 17.0957 232.239 17.8486 232.251 18.7686ZM229.702 19.1289C229.708 19.041 229.711 18.9121 229.711 18.7422C229.711 18.1035 229.591 17.6201 229.351 17.292C229.11 16.958 228.721 16.791 228.182 16.791C227.643 16.791 227.212 16.9697 226.89 17.3271C226.573 17.6787 226.368 18.2793 226.274 19.1289H229.702Z" fill="white"/>
<defs>
<filter id="filter0_d" x="59" y="0" width="207" height="42" filterUnits="userSpaceOnUse" color-interpolation-filters="sRGB">
<feFlood flood-opacity="0" result="BackgroundImageFix"/>
<feColorMatrix in="SourceAlpha" type="matrix" values="0 0 0 0 0 0 0 0 0 0 0 0 0 0 0 0 0 0 127 0"/>
<feOffset dy="2"/>
<feGaussianBlur stdDeviation="1"/>
<feColorMatrix type="matrix" values="0 0 0 0 0 0 0 0 0 0 0 0 0 0 0 0 0 0 0.25 0"/>
<feBlend mode="normal" in2="BackgroundImageFix" result="effect1_dropShadow"/>
<feBlend mode="normal" in="SourceGraphic" in2="effect1_dropShadow" result="shape"/>
</filter>
</defs>
</svg>
