<svg width="82" height="82" viewBox="0 0 82 82" fill="none" xmlns="http://www.w3.org/2000/svg">
<path d="M54.6666 0C39.5953 0 27.3332 12.262 27.3332 27.3334C27.3332 29.1284 27.5285 30.9702 27.9138 32.8203L24.8607 34.3468C24.3702 34.592 24.0266 35.0592 23.9382 35.6013C23.8498 36.1434 24.0284 36.694 24.4171 37.0827L26.626 39.2916L24.9176 41H22.2082C21.2639 41 20.4998 41.7641 20.4998 42.7084V45.4178L18.0842 47.8334H15.375C14.4307 47.8334 13.6666 48.5975 13.6666 49.5418V52.2511L11.251 54.6666H8.54161C7.59733 54.6666 6.83323 55.4307 6.83323 56.375V59.0844L0.500488 65.4171C0.180176 65.7374 0 66.1711 0 66.625V80.2916C0 81.2359 0.764105 82 1.70839 82H15.375C15.8287 82 16.2626 81.8198 16.5829 81.4995L42.7084 55.374L44.9173 57.5829C45.3044 57.9716 45.8566 58.1535 46.3987 58.0618C46.9408 57.9734 47.408 57.6297 47.6532 57.1393L49.1797 54.0862C66.5616 57.7096 82 44.1998 82 27.3334C82 12.262 69.7381 0 54.6666 0ZM48.6792 50.4625C47.9051 50.2657 47.0859 50.6328 46.7256 51.3535L45.6562 53.4906L43.9161 51.7505C43.2488 51.0831 42.1677 51.0831 41.5005 51.7505L14.6676 78.5834H3.41661V67.3324L9.74951 60.9995C10.0698 60.6792 10.25 60.2455 10.25 59.7916V58.0832H11.9584C12.4121 58.0832 12.846 57.903 13.1663 57.5827L16.5829 54.1661C16.9032 53.8458 17.0834 53.4121 17.0834 52.9582V51.25H18.7918C19.2455 51.25 19.6794 51.0698 19.9997 50.7495L23.4163 47.3329C23.7366 47.0126 23.9168 46.5789 23.9168 46.125V44.4166H25.625C26.0787 44.4166 26.5126 44.2364 26.8329 43.9161L30.2495 40.4995C30.9169 39.8321 30.9169 38.7511 30.2495 38.0839L28.5094 36.3438L30.6465 35.2744C31.3672 34.9141 31.7377 34.1 31.5375 33.3208C31.0154 31.2921 30.75 29.2785 30.75 27.3334C30.75 14.1455 41.4789 3.41677 54.6666 3.41677C67.8544 3.41677 78.5832 14.1456 78.5832 27.3334C78.5834 42.4664 64.4613 54.5265 48.6792 50.4625Z" fill="#E21047"/>
<path d="M63.2084 10.25C58.4988 10.25 54.6668 14.0821 54.6668 18.7916C54.6668 23.5012 58.4988 27.3332 63.2084 27.3332C67.9179 27.3332 71.75 23.5013 71.75 18.7916C71.75 14.0819 67.9179 10.25 63.2084 10.25ZM63.2084 23.9166C60.3823 23.9166 58.0834 21.6177 58.0834 18.7916C58.0834 15.9655 60.3823 13.6666 63.2084 13.6666C66.0345 13.6666 68.3334 15.9655 68.3334 18.7916C68.3334 21.6177 66.0345 23.9166 63.2084 23.9166Z" fill="#E21047"/>
<path d="M34.6671 44.9171L10.7505 68.8339C10.0831 69.5013 10.0831 70.5823 10.7505 71.2495C11.0841 71.5831 11.5213 71.75 11.9584 71.75C12.3955 71.75 12.8325 71.5831 13.1663 71.2495L37.0829 47.3329C37.7503 46.6656 37.7503 45.5845 37.0829 44.9173C36.4155 44.2499 35.3345 44.2499 34.6671 44.9171Z" fill="#E21047"/>
</svg>
