<svg width="25" height="20" viewBox="0 0 25 20" fill="none" xmlns="http://www.w3.org/2000/svg">
<path d="M11.3841 17.1352L11.5509 16.8503L11.3545 16.585C10.4297 15.3358 9.84211 13.7426 9.84211 12.0229C9.84211 7.84047 13.1192 4.5 17.1711 4.5C21.2266 4.5 24.5 7.7984 24.5 11.9771C24.5 16.1595 21.2229 19.5 17.1711 19.5C15.6277 19.5 14.1615 18.987 12.9412 18.1246L12.6664 17.9304L12.383 18.1119C11.5778 18.6276 10.7082 18.8019 9.95729 18.8257C10.0842 18.7243 10.2022 18.619 10.3107 18.5139C10.8661 17.976 11.2395 17.3822 11.3841 17.1352Z" fill="white" stroke="#E21047"/>
<path d="M18.8452 13.395V14H15.6152L15.5024 13.6138C15.9194 13.3722 16.3034 13.1056 16.6543 12.814C17.0075 12.52 17.2935 12.2124 17.5122 11.8911C17.7332 11.5675 17.8438 11.2542 17.8438 10.9512C17.8438 10.7142 17.7743 10.5273 17.6353 10.3906C17.4963 10.2516 17.2957 10.1821 17.0337 10.1821C16.8172 10.1821 16.6042 10.2288 16.3945 10.3223C16.1872 10.4157 16.0174 10.5308 15.8853 10.6675L15.5674 10.2437C15.7292 10.0659 15.9411 9.91211 16.2031 9.78223C16.4674 9.65007 16.7716 9.58398 17.1157 9.58398C17.6444 9.58398 18.0249 9.70817 18.2573 9.95654C18.492 10.2026 18.6094 10.5205 18.6094 10.9102C18.6094 11.1995 18.5319 11.4935 18.377 11.792C18.2243 12.0882 18.0078 12.3753 17.7275 12.6533C17.4473 12.929 17.1191 13.1831 16.7432 13.4155L18.8452 13.395Z" fill="black"/>
</svg>
