<svg width="17" height="10" viewBox="0 0 17 10" fill="none" xmlns="http://www.w3.org/2000/svg">
<path d="M16.727 4.25515L10.5905 0.181119C10.4142 0.064194 10.1827 0 9.93395 0C9.68517 0 9.45021 0.064194 9.27744 0.181119L8.72114 0.550234C8.54492 0.667159 8.44818 0.820766 8.44818 0.985837C8.44818 1.15091 8.54492 1.31139 8.72114 1.42832L12.3043 3.81037H0.919106C0.404269 3.81037 0 4.07632 0 4.41792V4.94065C0 5.28225 0.404269 5.57342 0.919106 5.57342H12.3388L8.71423 7.96923C8.53801 8.08615 8.44127 8.23747 8.44127 8.40254C8.44127 8.56761 8.53801 8.72122 8.71423 8.83585L9.27053 9.20496C9.44675 9.32189 9.67826 9.38379 9.92704 9.38379C10.1758 9.38379 10.4108 9.31959 10.5835 9.20267L16.7236 5.12864C16.8998 5.01172 16.9966 4.85582 16.9966 4.69075C17 4.52797 16.9033 4.37207 16.727 4.25515Z" fill="black"/>
</svg>
