<svg width="22" height="22" viewBox="0 0 22 22" fill="none" xmlns="http://www.w3.org/2000/svg">
<g clip-path="url(#clip0)">
<path d="M19.1925 1.60266C17.0556 -0.53422 13.579 -0.53422 11.4421 1.60266L3.28187 9.76286C3.03003 10.0147 3.03003 10.4227 3.28187 10.6745C3.53371 10.9264 3.9417 10.9264 4.19354 10.6745L12.3537 2.51433C13.9378 0.93153 16.6967 0.93153 18.2808 2.51433C19.9146 4.14813 19.9146 6.80695 18.2808 8.44075L6.88613 19.9637C5.91151 20.9383 4.21347 20.9383 3.2389 19.9637C2.23343 18.9582 2.23343 17.3225 3.2389 16.3171L14.1777 5.24929C14.5429 4.88414 15.18 4.88414 15.5452 5.24929C15.9223 5.62638 15.9223 6.24028 15.5452 6.61741L5.06284 17.2287C4.84542 17.4461 4.84542 17.9229 5.06284 18.1403C5.31468 18.3922 5.72267 18.3922 5.97451 18.1403L16.4568 7.52904C17.337 6.64882 17.337 5.21779 16.4568 4.33762C15.6044 3.48516 14.1172 3.48641 13.266 4.33762L2.32723 15.4053C0.830803 16.9018 0.830803 19.3788 2.32723 20.8753C3.05822 21.6063 4.02965 22 5.0628 22C6.09594 22 7.06746 21.6063 7.7978 20.8753L19.1924 9.35238C21.3293 7.2155 21.3293 3.7395 19.1925 1.60266Z" fill="#E21047"/>
</g>
<defs>
<clipPath id="clip0">
<rect width="22" height="22" fill="white"/>
</clipPath>
</defs>
</svg>
