<svg width="20" height="20" viewBox="0 0 20 20" fill="none" xmlns="http://www.w3.org/2000/svg">
<path d="M17.2149 1.37192C16.2066 0.363657 14.5744 0.363657 13.5661 1.37192L12.6529 2.28928L2.93389 12.0083L2.91323 12.0289C2.9091 12.0331 2.9091 12.0413 2.90083 12.0413C2.88844 12.0579 2.87604 12.0703 2.86364 12.0868C2.86364 12.0909 2.85951 12.0909 2.85951 12.0992C2.84711 12.1157 2.84298 12.124 2.83472 12.1405C2.83059 12.1446 2.83059 12.1488 2.82645 12.157C2.82232 12.1736 2.81406 12.1818 2.80992 12.1984C2.80992 12.2025 2.80579 12.2025 2.80579 12.2108L0.648768 18.6984C0.586785 18.8843 0.632239 19.0868 0.772735 19.2232C0.871909 19.3182 1.00414 19.3719 1.1405 19.3719C1.19835 19.3719 1.25207 19.3637 1.30579 19.3471L7.78513 17.186C7.78926 17.186 7.78926 17.186 7.79753 17.1818C7.81406 17.1777 7.83059 17.1694 7.84298 17.1612C7.84711 17.1612 7.85125 17.157 7.85538 17.157C7.87191 17.1446 7.89257 17.1364 7.90497 17.124C7.92149 17.1157 7.93802 17.0992 7.95042 17.0868C7.95455 17.0827 7.95868 17.0827 7.95868 17.0744C7.96282 17.0703 7.97521 17.0661 7.97935 17.0537L18.6157 6.41738C19.624 5.40911 19.624 3.77688 18.6157 2.76862L17.2149 1.37192ZM7.61984 15.967L4.02893 12.3761L13.0165 3.38432L16.6074 6.97523L7.61984 15.967ZM3.52067 13.3306L6.65703 16.467L1.94629 18.0372L3.52067 13.3306ZM17.8884 5.69424L17.343 6.24795L13.7521 2.65705L14.3058 2.10333C14.9091 1.50002 15.8884 1.50002 16.4917 2.10333L17.8967 3.50828C18.4917 4.11159 18.4917 5.0868 17.8884 5.69424Z" fill="#E21047"/>
</svg>
