<svg width="85" height="77" viewBox="0 0 85 77" fill="none" xmlns="http://www.w3.org/2000/svg">
<path d="M32.0252 1.79897L29.7372 1.22696C18.693 -1.54507 7.12085 2.98699 0.82877 12.4471C-0.183244 14.1191 0.300765 16.2752 1.97279 17.2872C3.55681 18.2552 5.62484 17.8592 6.72485 16.3192C11.3889 9.32308 19.925 6.02303 28.0651 8.04706L30.3532 8.61907C32.2452 9.05907 34.1372 7.91506 34.6212 6.02303C35.0172 4.17501 33.8732 2.28298 32.0252 1.79897Z" fill="#AAAAAA"/>
<path d="M68.8096 42.3674C67.9296 42.0594 66.9616 42.1474 66.1256 42.5874C49.8453 50.7275 30.7051 50.7275 14.4689 42.5874C12.7528 41.7074 10.5968 42.4114 9.7608 44.1274C9.3208 44.9634 9.2768 45.9314 9.5408 46.8115L12.8848 56.9316C17.8569 72.0678 34.1371 80.2959 49.2733 75.3239C57.9855 72.4638 64.8055 65.6437 67.6656 56.9316L71.0096 46.8115C71.6696 45.0074 70.6576 42.9834 68.8096 42.3674ZM61.0215 54.7316C57.2814 66.1717 44.9613 72.4198 33.5211 68.6358C26.921 66.4797 21.773 61.2877 19.6169 54.7316L18.6929 52.0035C32.6851 56.9316 47.9533 56.9316 61.9015 52.0035L61.0215 54.7316Z" fill="#AAAAAA"/>
<path d="M84.4738 13.8991C84.4298 13.8551 84.3858 13.7671 84.3418 13.7231C78.0498 4.26301 66.4776 -0.22505 55.4334 2.50299L53.1454 3.07499C51.2974 3.647 50.2854 5.62703 50.8574 7.51905C51.3854 9.19108 53.1014 10.2471 54.8614 9.89508L57.1495 9.32308C65.2896 7.29905 73.8257 10.5991 78.4898 17.5952C79.5018 19.2672 81.7018 19.7512 83.3298 18.7392C85.0019 17.7272 85.4859 15.5712 84.4738 13.8991Z" fill="#AAAAAA"/>
</svg>
