<svg width="99" height="99" viewBox="0 0 99 99" fill="none" xmlns="http://www.w3.org/2000/svg">
<g clip-path="url(#clip0)">
<path d="M20.1321 87.0209C19.1669 87.0209 18.8203 86.3212 18.409 85.6194C17.9777 84.8822 18.2254 83.9347 18.9624 83.5031C19.6998 83.0716 20.6473 83.3197 21.0786 84.0565C21.2161 84.2914 21.3288 84.477 21.4336 84.6409C22.0969 85.6786 21.3363 87.0209 20.1321 87.0209Z" fill="#E21047"/>
<path d="M47.2421 98.9965H41.761C34.6735 98.9965 27.9717 96.2745 22.8899 91.3315C22.2776 90.736 22.264 89.7566 22.8597 89.1443C23.455 88.5322 24.4342 88.5183 25.0469 89.1141C29.5478 93.492 35.4838 95.9029 41.7612 95.9029H47.2423C54.2596 95.9029 60.8572 93.173 65.8222 88.2149L94.6438 57.8475C97.3677 54.9567 95.2337 51.0492 91.9742 51.0492C87.9551 51.0492 84.176 52.6055 81.3253 55.4331L72.9697 65.3274C70.4747 68.2944 64.9613 66.564 64.9613 62.1411V53.9185C64.9613 53.6016 64.2904 56.2184 75.1486 15.6979C76.0665 12.2687 73.476 8.88299 69.9163 8.88299C67.6688 8.88299 65.4441 10.2878 64.6829 12.9226L54.0746 49.929C53.5831 51.6447 51.0411 51.285 51.0411 49.5029V8.51565C51.0411 3.67587 45.1815 1.30963 41.7981 4.68779C40.7773 5.71016 40.2143 7.07008 40.2143 8.51565V48.3042C40.2143 50.1047 37.6387 50.4409 37.1735 48.7044L28.0539 14.6657C27.6792 13.2694 26.7835 12.1022 25.531 11.3792C21.9069 9.28745 17.4082 11.9387 17.4082 16.0616C17.4082 17.0748 16.6927 14.1011 26.9489 52.3757C27.4149 54.1147 25.0144 55.1061 24.1156 53.5492L11.7535 32.1372C9.41551 28.0907 3.09381 29.6871 3.09381 34.465C3.09381 35.2728 3.3088 36.0722 3.71596 36.7773L12.3967 51.8132C15.9232 57.9227 17.7873 64.8787 17.7873 71.9299C17.7873 74.2427 18.116 76.5303 18.7645 78.7289C19.0059 79.5483 18.5377 80.4084 17.7183 80.6501C16.9003 80.8923 16.039 80.4233 15.7971 79.6039C15.0652 77.1211 14.694 74.5393 14.694 71.93C14.694 65.421 12.9733 58.9995 9.71788 53.3599L1.0371 38.3242C-1.1329 34.5648 0.241523 29.8559 3.86889 27.7607C7.55948 25.6282 12.2989 26.8973 14.4324 30.5904L20.9203 41.8278L14.6075 18.2691C13.3799 13.7071 16.1167 9.05506 20.6245 7.85038C25.1625 6.63275 29.824 9.32322 31.0419 13.8643L37.1209 36.554V8.51527C37.1209 3.84775 40.8931 0.00848389 45.6277 0.00848389C50.3184 0.00848389 54.1345 3.82455 54.1345 8.51527V38.4941L61.7059 12.0819C62.7053 8.37645 66.0794 5.78942 69.9165 5.78942C75.5207 5.78942 79.5752 11.1241 78.1368 16.4979L68.0549 54.1219V62.1411C68.0549 63.5074 69.6841 64.1893 70.6547 63.2746C76.4754 56.382 79.0207 53.3634 79.093 53.2905C82.5332 49.8505 87.1079 47.9558 91.9744 47.9558C98.0747 47.9558 101.46 55.3799 96.8747 59.9906C67.0762 91.3872 68.0499 90.3617 68.0232 90.3888C62.4723 95.9397 55.0919 98.9965 47.2421 98.9965Z" fill="#E21047"/>
<path d="M41.761 89.5205C40.9068 89.5205 40.2143 88.828 40.2143 87.9738C40.2143 75.6191 49.4354 65.0742 61.6635 63.4453C62.5131 63.3339 63.2883 63.9275 63.4009 64.7741C63.5138 65.6209 62.9187 66.3987 62.0721 66.5114C51.3746 67.9363 43.3074 77.1633 43.3074 87.9738C43.3076 88.828 42.6151 89.5205 41.761 89.5205Z" fill="#E21047"/>
</g>
<defs>
<clipPath id="clip0">
<rect width="99" height="99" fill="white"/>
</clipPath>
</defs>
</svg>
