<svg width="99" height="99" viewBox="0 0 99 99" fill="none" xmlns="http://www.w3.org/2000/svg">
<path d="M99 32.9098C99 32.4264 98.7486 31.9816 98.3619 31.7109L89.1387 25.5621V19.742C89.1387 16.3002 86.335 13.4965 82.8932 13.4965H71.0596L53.5025 1.79824C51.0662 0.174023 47.9338 0.174023 45.5168 1.79824L27.9404 13.5158H23.8412C23.0484 13.5158 22.391 14.1732 22.391 14.966C22.391 15.7588 23.0484 16.4162 23.8412 16.4162H82.9125C84.7494 16.4162 86.2576 17.9051 86.2576 19.7613V38.7105L49.5 63.1898L12.7617 38.6912V19.742C12.7617 17.9051 14.2506 16.3969 16.1068 16.3969H18.0404C18.8332 16.3969 19.4906 15.7395 19.4906 14.9467C19.4906 14.1539 18.8332 13.4965 18.0404 13.4965H16.1068C12.6457 13.4965 9.86133 16.3002 9.86133 19.742V25.5621L0.638086 31.6916C0.232031 31.9623 0 32.407 0 32.8904V90.5889C0 94.9008 3.51914 98.4199 7.83105 98.4199H80.0895C80.8822 98.4199 81.5396 97.7625 81.5396 96.9697C81.5396 96.177 80.8822 95.5195 80.0895 95.5195H7.83105C5.12402 95.5195 2.90039 93.3152 2.90039 90.5889V35.6168L48.6879 66.1482C48.9393 66.3029 49.21 66.3996 49.5 66.3996C49.79 66.3996 50.0607 66.3223 50.3121 66.1482L96.0996 35.6168V90.5889C96.0996 93.2959 93.8953 95.5195 91.1689 95.5195H85.8709C85.0781 95.5195 84.4207 96.177 84.4207 96.9697C84.4207 97.7625 85.0781 98.4199 85.8709 98.4199H91.1689C95.4809 98.4199 99 94.9008 99 90.5889V32.9098ZM47.1217 4.1959C48.5719 3.2291 50.4475 3.2291 51.8977 4.1959L65.8389 13.4965H33.1611L47.1217 4.1959ZM9.86133 29.0426V36.7576L4.07988 32.8904L9.86133 29.0426ZM89.1387 36.7576V29.0426L94.9201 32.9098L89.1387 36.7576Z" fill="#E21047"/>
<path d="M86.8377 89.8348C87.2824 89.1774 87.1084 88.2686 86.4316 87.8239L56.809 68.0626C56.1515 67.6178 55.2428 67.7918 54.798 68.4686C54.3533 69.126 54.5273 70.0348 55.2041 70.4795L84.8461 90.2409C85.0974 90.4149 85.3681 90.4922 85.6582 90.4922C86.1029 90.4729 86.567 90.2602 86.8377 89.8348Z" fill="#E21047"/>
<path d="M13.3611 90.4728C13.6318 90.4728 13.9219 90.3955 14.1732 90.2215L43.8152 70.4601C44.4726 70.0154 44.666 69.1066 44.2213 68.4492C43.7766 67.7918 42.8678 67.5984 42.2103 68.0432L12.5683 87.8238C11.9109 88.2686 11.7176 89.1773 12.1623 89.8348C12.433 90.2602 12.8971 90.4728 13.3611 90.4728Z" fill="#E21047"/>
<path d="M9.93872 58.7039C10.5768 58.7039 10.9249 59.0712 11.6403 60.0574C12.4331 61.1208 13.5159 62.571 15.6815 62.571C17.8471 62.571 18.9299 61.1208 19.7227 60.0574C20.4575 59.0712 20.7862 58.7039 21.4243 58.7039C22.0624 58.7039 22.4104 59.0712 23.1258 60.0574C23.9186 61.1208 25.0014 62.571 27.167 62.571C27.9598 62.571 28.6172 61.9136 28.6172 61.1208C28.6172 60.3281 27.9598 59.6707 27.167 59.6707C26.5289 59.6707 26.1809 59.3033 25.4655 58.3171C24.6727 57.2537 23.5899 55.8035 21.4243 55.8035C19.2586 55.8035 18.1758 57.2537 17.3831 58.3171C16.6483 59.3033 16.3196 59.6707 15.6815 59.6707C15.0434 59.6707 14.6954 59.3033 13.9799 58.3171C13.1872 57.2537 12.1043 55.8035 9.93872 55.8035C9.14595 55.8035 8.48853 56.4609 8.48853 57.2537C8.48853 58.0464 9.12661 58.7039 9.93872 58.7039Z" fill="#E21047"/>
<path d="M9.93872 65.2781C10.5768 65.2781 10.9249 65.6455 11.6403 66.6316C12.4331 67.6951 13.5159 69.1453 15.6815 69.1453C17.8471 69.1453 18.9299 67.6951 19.7227 66.6316C20.4575 65.6455 20.7862 65.2781 21.4243 65.2781C22.0624 65.2781 22.4104 65.6455 23.1258 66.6316C23.9186 67.6951 25.0014 69.1453 27.167 69.1453C27.9598 69.1453 28.6172 68.4878 28.6172 67.6951C28.6172 66.9023 27.9598 66.2449 27.167 66.2449C26.5289 66.2449 26.1809 65.8775 25.4655 64.8914C24.6727 63.8279 23.5899 62.3777 21.4243 62.3777C19.2586 62.3777 18.1758 63.8279 17.3831 64.8914C16.6483 65.8775 16.3196 66.2449 15.6815 66.2449C15.0434 66.2449 14.6954 65.8775 13.9799 64.8914C13.1872 63.8279 12.1043 62.3777 9.93872 62.3777C9.14595 62.3777 8.48853 63.0351 8.48853 63.8279C8.48853 64.6207 9.12661 65.2781 9.93872 65.2781Z" fill="#E21047"/>
<path d="M64.0406 29.0039C64.8334 29.0039 65.4908 28.3465 65.4908 27.5537C65.4908 26.7609 64.8334 26.1035 64.0406 26.1035H34.9593C34.1666 26.1035 33.5092 26.7609 33.5092 27.5537C33.5092 28.3465 34.1666 29.0039 34.9593 29.0039H64.0406Z" fill="#E21047"/>
<path d="M25.8909 35.23C25.8909 36.0228 26.5483 36.6802 27.3411 36.6802H71.659C72.4518 36.6802 73.1092 36.0228 73.1092 35.23C73.1092 34.4372 72.4518 33.7798 71.659 33.7798H27.3411C26.529 33.7798 25.8909 34.4179 25.8909 35.23Z" fill="#E21047"/>
<path d="M27.3411 43.564H71.659C72.4518 43.564 73.1092 42.9065 73.1092 42.1138C73.1092 41.321 72.4518 40.6636 71.659 40.6636H27.3411C26.5483 40.6636 25.8909 41.321 25.8909 42.1138C25.8909 42.9065 26.529 43.564 27.3411 43.564Z" fill="#E21047"/>
</svg>
