<svg width="17" height="10" viewBox="0 0 17 10" fill="none" xmlns="http://www.w3.org/2000/svg">
<path d="M0.269541 5.12864L6.40613 9.20267C6.58235 9.31959 6.81385 9.38379 7.06263 9.38379C7.31141 9.38379 7.54637 9.31959 7.71914 9.20267L8.27544 8.83355C8.45166 8.71663 8.54841 8.56302 8.54841 8.39795C8.54841 8.23288 8.45166 8.0724 8.27544 7.95547L4.69231 5.57342L16.0775 5.57342C16.5923 5.57342 16.9966 5.30747 16.9966 4.96587L16.9966 4.44314C16.9966 4.10154 16.5923 3.81037 16.0775 3.81037L4.65775 3.81037L8.28235 1.41456C8.45857 1.29764 8.55532 1.14632 8.55532 0.981251C8.55532 0.816181 8.45857 0.662573 8.28235 0.547941L7.72605 0.178826C7.54983 0.0619012 7.31833 -8.461e-07 7.06955 -8.67849e-07C6.82076 -8.89598e-07 6.5858 0.0641938 6.41304 0.181118L0.272995 4.25515C0.0967755 4.37207 2.90347e-05 4.52797 2.90203e-05 4.69304C-0.00342711 4.85582 0.0933212 5.01172 0.269541 5.12864Z" fill="black" fill-opacity="0.25"/>
</svg>
