<svg width="19" height="19" viewBox="0 0 19 19" fill="none" xmlns="http://www.w3.org/2000/svg">
<path d="M16.3541 1.30335C15.3963 0.345498 13.8457 0.345498 12.8878 1.30335L12.0203 2.17484L2.7872 11.4079L2.76757 11.4275C2.76364 11.4314 2.76364 11.4393 2.75579 11.4393C2.74402 11.455 2.73224 11.4668 2.72046 11.4825C2.72046 11.4864 2.71654 11.4864 2.71654 11.4943C2.70476 11.51 2.70083 11.5178 2.69298 11.5335C2.68906 11.5374 2.68906 11.5414 2.68513 11.5492C2.68121 11.5649 2.67335 11.5728 2.66943 11.5885C2.66943 11.5924 2.6655 11.5924 2.6655 11.6003L0.61633 17.7635C0.557445 17.9401 0.600627 18.1325 0.734098 18.262C0.828313 18.3523 0.953933 18.4033 1.08348 18.4033C1.13844 18.4033 1.18947 18.3955 1.2405 18.3798L7.39587 16.3267C7.3998 16.3267 7.3998 16.3267 7.40765 16.3228C7.42335 16.3188 7.43906 16.311 7.45083 16.3031C7.45476 16.3031 7.45868 16.2992 7.46261 16.2992C7.47831 16.2874 7.49794 16.2796 7.50972 16.2678C7.52542 16.26 7.54112 16.2443 7.5529 16.2325C7.55682 16.2286 7.56075 16.2286 7.56075 16.2207C7.56468 16.2168 7.57645 16.2129 7.58038 16.2011L17.6849 6.09653C18.6428 5.13868 18.6428 3.58806 17.6849 2.63021L16.3541 1.30335ZM7.23885 15.1686L3.82749 11.7573L12.3657 3.21513L15.7771 6.62649L7.23885 15.1686ZM3.34464 12.6641L6.32418 15.6436L1.84897 17.1354L3.34464 12.6641ZM16.994 5.40955L16.4758 5.93558L13.0645 2.52422L13.5905 1.99818C14.1636 1.42504 15.094 1.42504 15.6672 1.99818L17.0019 3.33289C17.5672 3.90604 17.5672 4.83248 16.994 5.40955Z" fill="white"/>
</svg>
