<svg width="68" height="35" viewBox="0 0 68 35" fill="none" xmlns="http://www.w3.org/2000/svg">
<g filter="url(#filter0_d)">
<rect x="1" width="66" height="31" rx="5" fill="#E21047"/>
</g>
<path d="M18.8926 17.751C19.2253 17.9333 19.6263 18.0882 20.0957 18.2158C20.5651 18.3434 21.0573 18.4072 21.5723 18.4072C22.1328 18.4072 22.527 18.3229 22.7549 18.1543C22.9827 17.9811 23.0967 17.7122 23.0967 17.3477C23.0967 17.1016 23.0397 16.8942 22.9258 16.7256C22.8118 16.5524 22.6182 16.3792 22.3447 16.2061C22.0758 16.0329 21.6543 15.805 21.0801 15.5225C20.3145 15.1442 19.6924 14.7021 19.2139 14.1963C18.7354 13.6904 18.4961 13.0547 18.4961 12.2891C18.4961 11.6328 18.6556 11.0973 18.9746 10.6826C19.2982 10.2633 19.7311 9.96029 20.2734 9.77344C20.8203 9.58203 21.4378 9.48633 22.126 9.48633C22.7184 9.48633 23.2562 9.55013 23.7393 9.67773C24.2269 9.80534 24.5846 9.94206 24.8125 10.0879L24.457 11.7764C24.1471 11.5804 23.8076 11.4209 23.4385 11.2979C23.0739 11.1748 22.6569 11.1133 22.1875 11.1133C21.6361 11.1133 21.2373 11.2067 20.9912 11.3936C20.7497 11.5758 20.6289 11.8379 20.6289 12.1797C20.6289 12.4212 20.6882 12.6286 20.8066 12.8018C20.9297 12.9749 21.1097 13.1413 21.3467 13.3008C21.5837 13.4557 21.9437 13.6608 22.4268 13.916C23.083 14.2624 23.6048 14.5745 23.9922 14.8525C24.3841 15.126 24.6963 15.4541 24.9287 15.8369C25.1657 16.2197 25.2842 16.6777 25.2842 17.2109C25.2842 17.8216 25.1361 18.3457 24.8398 18.7832C24.5436 19.2161 24.1243 19.5465 23.582 19.7744C23.0443 19.9977 22.4199 20.1094 21.709 20.1094C21.2852 20.1094 20.8568 20.0752 20.4238 20.0068C19.9954 19.943 19.6149 19.8633 19.2822 19.7676C18.9541 19.6719 18.7217 19.5807 18.585 19.4941L18.8926 17.751ZM29.9531 12.0566C30.7096 12.0566 31.3135 12.141 31.7646 12.3096C32.2204 12.4736 32.5599 12.763 32.7832 13.1777C33.0065 13.5879 33.1182 14.1644 33.1182 14.9072V20.1094H31.874C31.6689 20.1094 31.514 20.0957 31.4092 20.0684C31.3044 20.041 31.2223 19.9772 31.1631 19.877C31.1038 19.7767 31.0742 19.6172 31.0742 19.3984V19.3438C30.8372 19.5625 30.5456 19.7448 30.1992 19.8906C29.8529 20.0365 29.4678 20.1094 29.0439 20.1094C28.5426 20.1094 28.0983 20.0023 27.7109 19.7881C27.3281 19.5693 27.0296 19.2686 26.8154 18.8857C26.6058 18.4984 26.501 18.0609 26.501 17.5732C26.501 17.1175 26.6172 16.7279 26.8496 16.4043C27.0866 16.0807 27.4238 15.821 27.8613 15.625C28.5404 15.3242 29.5817 15.1738 30.9854 15.1738V14.6816C30.9854 14.39 30.9466 14.1758 30.8691 14.0391C30.7962 13.9023 30.6527 13.8089 30.4385 13.7588C30.2288 13.7087 29.8962 13.6836 29.4404 13.6836C29.2217 13.6836 28.889 13.7406 28.4424 13.8545C27.9958 13.9639 27.613 14.0915 27.2939 14.2373L26.8223 12.8701C27.0046 12.7607 27.2689 12.6423 27.6152 12.5146C27.9616 12.387 28.3421 12.2799 28.7568 12.1934C29.1715 12.1022 29.5703 12.0566 29.9531 12.0566ZM29.7754 18.667C30.0033 18.667 30.2425 18.6214 30.4932 18.5303C30.7438 18.4346 30.9079 18.3366 30.9854 18.2363V16.377C30.7256 16.377 30.4316 16.4066 30.1035 16.4658C29.7799 16.5205 29.5384 16.5843 29.3789 16.6572C29.1738 16.7347 29.0098 16.8395 28.8867 16.9717C28.7637 17.1038 28.7021 17.2998 28.7021 17.5596C28.7021 17.9242 28.8001 18.1999 28.9961 18.3867C29.1966 18.5736 29.4564 18.667 29.7754 18.667ZM42.1963 12.207L39.2227 20.1094H37.2471L34.2871 12.207H36.5908L37.7803 16.0352L38.2793 17.9355L38.751 16.0352L39.9404 12.207H42.1963ZM49.791 15.1533C49.791 15.8096 49.766 16.2972 49.7158 16.6162H45.1084C45.1494 17.2588 45.3499 17.7373 45.71 18.0518C46.0745 18.3662 46.5667 18.5234 47.1865 18.5234C47.4827 18.5234 47.8405 18.4847 48.2598 18.4072C48.6836 18.3252 48.9935 18.2295 49.1895 18.1201L49.5381 19.3301C49.2692 19.5488 48.8659 19.7334 48.3281 19.8838C47.7904 20.0342 47.2298 20.1094 46.6465 20.1094C45.8626 20.1094 45.195 19.9499 44.6436 19.6309C44.0921 19.3118 43.6751 18.8516 43.3926 18.25C43.11 17.6439 42.9688 16.9193 42.9688 16.0762C42.9688 15.3105 43.1169 14.627 43.4131 14.0254C43.7093 13.4238 44.14 12.9521 44.7051 12.6104C45.2747 12.2686 45.9515 12.0977 46.7354 12.0977C47.3005 12.0977 47.8109 12.2002 48.2666 12.4053C48.7223 12.6104 49.0869 12.9408 49.3604 13.3965C49.6383 13.8522 49.7819 14.4378 49.791 15.1533ZM47.8086 15.4336C47.8132 15.3652 47.8154 15.265 47.8154 15.1328C47.8154 14.6361 47.722 14.2601 47.5352 14.0049C47.3483 13.7451 47.0452 13.6152 46.626 13.6152C46.2067 13.6152 45.8717 13.7542 45.6211 14.0322C45.375 14.3057 45.2155 14.7728 45.1426 15.4336H47.8086Z" fill="white"/>
<defs>
<filter id="filter0_d" x="0" y="0" width="68" height="33" filterUnits="userSpaceOnUse" color-interpolation-filters="sRGB">
<feFlood flood-opacity="0" result="BackgroundImageFix"/>
<feColorMatrix in="SourceAlpha" type="matrix" values="0 0 0 0 0 0 0 0 0 0 0 0 0 0 0 0 0 0 127 0"/>
<feOffset dy="1"/>
<feGaussianBlur stdDeviation="0.5"/>
<feColorMatrix type="matrix" values="0 0 0 0 0 0 0 0 0 0 0 0 0 0 0 0 0 0 0.25 0"/>
<feBlend mode="normal" in2="BackgroundImageFix" result="effect1_dropShadow"/>
<feBlend mode="normal" in="SourceGraphic" in2="effect1_dropShadow" result="shape"/>
</filter>
</defs>
</svg>
