<svg width="22" height="22" viewBox="0 0 22 22" fill="none" xmlns="http://www.w3.org/2000/svg">
<path d="M17.9689 15.7612C17.6789 14.3087 16.3163 14.0614 16.312 14.0594V14.0595C16.2974 14.0552 16.437 14.0902 12.9888 13.2355V13.1185H15.5271C16.0504 13.1185 16.476 12.6928 16.476 12.1696V7.32846C16.5187 7.14847 16.5188 6.96134 16.476 6.78096V5.01412C16.476 4.83606 16.3317 4.69181 16.1537 4.69181C15.9756 4.69181 15.8314 4.83606 15.8314 5.01412V5.93911C15.6612 5.83753 15.4669 5.7647 15.2575 5.72865C15.1818 5.39276 14.9029 5.12722 14.5491 5.08077C14.1804 5.0323 13.9009 4.81733 13.7185 4.44187C13.6331 4.26608 13.4659 4.15062 13.2712 4.13292C13.0764 4.1153 12.892 4.19853 12.7765 4.35571C12.2225 5.10973 10.6822 6.80094 8.02261 6.80085C7.82027 6.80085 7.68307 6.79127 7.63529 6.78912C7.14656 6.75969 6.73333 7.15019 6.73333 7.6399V8.38047C6.73333 9.56413 7.22438 10.7117 8.08049 11.5287C8.36442 11.7997 8.67762 12.0258 9.01162 12.2061V12.4739H6.48484C6.31705 12.4739 6.18054 12.3374 6.18054 12.1697V4.92728C6.18054 2.57934 8.09492 0.644632 10.4074 0.644632C10.4149 0.644632 10.4224 0.644674 10.4298 0.644717C11.2583 0.649143 12.2149 0.884483 12.8668 1.24409C13.28 1.47212 13.5352 1.29088 13.9431 1.29088C14.9389 1.29088 15.737 2.31483 15.8326 3.23578C15.8332 3.24927 15.8346 3.30328 15.8348 3.51022C15.835 3.82135 16.1864 3.84524 16.1574 3.83227C16.3354 3.83214 16.4795 3.68768 16.4794 3.5097C16.4794 3.45247 16.4798 3.22804 16.4745 3.17596C16.3449 1.8939 15.2513 0.646264 13.9432 0.646264C13.4323 0.646264 13.3527 0.775772 13.1783 0.679694C12.4391 0.271878 11.3616 0.00508459 10.4333 0.000100214C7.75753 -0.0172162 5.53588 2.21187 5.53588 4.92724V12.1696C5.53588 12.6929 5.96157 13.1185 6.4848 13.1185H9.01162V13.2355L5.70139 14.0559C5.69701 14.057 5.69271 14.0582 5.68837 14.0595L5.44654 14.1308C5.43928 14.133 5.43215 14.1353 5.42506 14.1379C4.99348 14.299 4.23856 14.724 4.03141 15.7614C3.05044 20.6891 3.09173 20.4787 3.08936 20.4956C2.9712 21.3314 3.38959 21.9999 4.39604 21.9999H7.88145C8.05952 21.9999 8.20376 21.8556 8.20376 21.6776C8.20376 21.4996 8.05947 21.3553 7.88145 21.3553H6.66858V18.3153C6.66858 18.1372 6.52429 17.993 6.34627 17.993C6.16825 17.993 6.02396 18.1373 6.02396 18.3153V21.3553H4.39604C3.9679 21.3553 3.71929 21.2175 3.71516 20.7677C3.71336 20.5483 3.70472 20.7622 4.66361 15.8874C4.80794 15.1645 5.33285 14.8626 5.64038 14.7457L5.8639 14.6798L7.76484 14.2086C9.87946 16.6998 9.75425 16.5678 9.87645 16.687C10.5823 17.3755 11.5894 17.3269 12.2522 16.5484L14.2427 14.2104L16.1364 14.6797C16.1912 14.7049 17.1338 14.8707 17.3368 15.8873C18.2874 20.7198 18.2871 20.5473 18.2853 20.7675C18.282 21.208 18.0437 21.3554 17.6044 21.3554H15.988V18.3153C15.988 18.1372 15.8438 17.993 15.6657 17.993C15.4877 17.993 15.3434 18.1373 15.3434 18.3153V21.3553H9.38558C9.20751 21.3553 9.06327 21.4996 9.06327 21.6776C9.06327 21.8557 9.20756 21.9999 9.38558 21.9999H17.6044C18.4007 21.9999 18.9226 21.5618 18.9299 20.7726C18.9326 20.4041 18.9107 20.5802 17.9689 15.7612ZM15.2786 6.39359C15.5477 6.47364 15.7553 6.65102 15.8314 6.87007V7.23935C15.7553 7.45844 15.5477 7.63582 15.2786 7.71583V6.39359ZM15.2786 8.43658V8.37707C15.48 8.33986 15.667 8.26853 15.8314 8.17035V12.1696C15.8314 12.3374 15.6949 12.4738 15.5272 12.4738H12.9888V12.2248C14.3553 11.5103 15.2786 10.0798 15.2786 8.43658ZM8.5256 11.0624C7.79629 10.3662 7.37803 9.38873 7.37803 8.38038C7.3972 7.67862 7.33158 7.59358 7.44356 7.48814C7.48322 7.45075 7.53654 7.42905 7.59657 7.43249C9.9076 7.57162 11.8953 6.55567 13.2077 4.85462C13.5615 5.47595 14.0805 5.6694 14.4652 5.71997C14.5614 5.7326 14.634 5.81467 14.634 5.91097C14.634 6.80261 14.634 7.55138 14.634 8.43663C14.634 11.6436 10.7946 13.2279 8.5256 11.0624ZM11.7613 16.1305C11.3122 16.6581 10.6836 16.6566 10.2356 16.1279L9.56308 15.3341H12.4393L11.7613 16.1305ZM12.9882 14.6894H9.01699L8.46308 14.0356L9.41157 13.8005C9.55543 13.7649 9.65632 13.6326 9.65632 13.4845L9.65636 12.4873C10.5432 12.783 11.4798 12.7797 12.3441 12.4965C12.3502 13.5267 12.3303 13.5031 12.3621 13.594C12.3973 13.6945 12.481 13.7737 12.5889 13.8005L13.5436 14.0371L12.9882 14.6894Z" fill="black"/>
</svg>
